# xmcd
#
# Track frame offsets:
#	150
#	13792
#	27005
#	37965
#	46667
#	55487
#	68350
#	77197
#	87587
#	98117
#	119760
#	130270
#	147167
#	158902
#	167595
#	177562
#
# Disc length: 2468 seconds
#
# Revision: 0
# Processed by: cddbd v1.5.1PL0 Copyright (c) Steve Scherf et al.
# Submitted via: dBpowerAMP V4.0
#
DISCID=d209a210
DTITLE=George Jones - Live Recordings From The Louisiana Hayride
DYEAR=2004
DGENRE=Country
TTITLE0=You Gotta Be My Baby
TTITLE1=Color Of The Blues
TTITLE2=Nothing Can Stop My Loving You
TTITLE3=I'm Ragged But I'm Right
TTITLE4=Too Much Water
TTITLE5=Accidently On Purpose
TTITLE6=Big Harlan Taylor
TTITLE7=Don't Stop The Music
TTITLE8=White Lightning
TTITLE9=Things Have Gone To Pieces
TTITLE10=The Race Is On
TTITLE11=Say It's Not You
TTITLE12=She Thinks I Still Care
TTITLE13=You Better Treat Your Man Right
TTITLE14=Walk Through This World With Me
TTITLE15=When The Grass Grows Over Me
EXTD=
EXTT0=
EXTT1=
EXTT2=
EXTT3=
EXTT4=
EXTT5=
EXTT6=
EXTT7=
EXTT8=
EXTT9=
EXTT10=
EXTT11=
EXTT12=
EXTT13=
EXTT14=
EXTT15=
PLAYORDER=
